<svg width="16" height="17" viewBox="0 0 16 17" fill="none" xmlns="http://www.w3.org/2000/svg">
<path fill-rule="evenodd" clip-rule="evenodd" d="M10.7668 5.92317L10.5038 6.58699L9.33974 9.52534L8.76866 10.9668L7.33333 14.5898H9.10751L9.83505 12.6224H13.4217L14.162 14.5898H16L12.5665 5.92317H10.8278H10.7668ZM10.6186 10.5246L10.3839 11.153H11.1036H12.8856L11.6348 7.80344L10.6186 10.5246ZM9.52722 5.43208C9.55393 5.36465 9.58574 5.30029 9.62211 5.23938H6.41909V2.58984H4.926V5.23938H0.540802V6.58699H4.31466C3.35062 8.37999 1.75173 10.1045 0 11.0181C0.329184 11.3036 0.811203 11.8289 1.04633 12.1829C2.55118 11.2693 3.90318 9.81896 4.926 8.163V13.2565H6.41909V8.1059C6.81951 8.7424 7.26748 9.35153 7.7521 9.91276L8.31996 8.47939C7.80191 7.88036 7.34631 7.23683 6.9834 6.58699H9.06968L9.52722 5.43208Z" fill="white"/>
</svg>
