<svg width="77" height="77" viewBox="0 0 77 77" fill="none" xmlns="http://www.w3.org/2000/svg">
<path d="M38.6002 76.1703C59.8082 76.1703 77.0002 73.0703 77.0002 69.2455C77.0002 65.4215 59.8082 62.3215 38.6002 62.3215C17.3922 62.3215 0.200195 65.4215 0.200195 69.2455C0.200195 73.0695 17.3922 76.1703 38.6002 76.1703Z" fill="url(#paint0_radial_157_4559)"/>
<path d="M38.6002 61.692C59.8082 61.692 77.0002 48.0224 77.0002 31.1608C77.0002 14.2984 59.8082 0.629639 38.6002 0.629639C17.3922 0.629639 0.200195 14.2992 0.200195 31.16C0.200195 48.0208 17.3922 61.692 38.6002 61.692Z" fill="url(#paint1_radial_157_4559)"/>
<path fill-rule="evenodd" clip-rule="evenodd" d="M60.5009 60.4992C60.6416 60.1438 60.6711 59.754 60.5854 59.3815C60.4998 59.009 60.3031 58.6712 60.0213 58.4129C59.7396 58.1546 59.3861 57.9879 59.0075 57.9348C58.629 57.8817 58.2432 57.9448 57.9013 58.1157C57.5594 58.2866 57.2774 58.5573 57.0926 58.8919C56.9079 59.2265 56.829 59.6093 56.8665 59.9897C56.904 60.3701 57.0561 60.7302 57.3027 61.0223C57.5492 61.3144 57.8786 61.5248 58.2473 61.6256C58.1977 61.7512 58.1617 61.8816 58.1401 62.0144C57.5613 62.3475 57.1384 62.8967 56.9642 63.5414C56.7901 64.1861 56.879 64.8736 57.2113 65.4528C57.376 65.7396 57.5955 65.9912 57.8574 66.1931C58.1193 66.395 58.4184 66.5434 58.7377 66.6296C59.0569 66.7159 59.39 66.7384 59.718 66.6958C60.0459 66.6533 60.3623 66.5465 60.6489 66.3816C60.6981 66.8149 60.859 67.2279 61.1157 67.5803C61.3725 67.9327 61.7163 68.2125 62.1136 68.3921C62.5109 68.5718 62.948 68.6452 63.3822 68.6052C63.8164 68.5652 64.2327 68.4132 64.5905 68.164C64.7113 68.4183 64.8874 68.6424 65.1059 68.8199C65.3244 68.9973 65.5799 69.1237 65.8535 69.1897C66.1272 69.2556 66.4122 69.2596 66.6876 69.2012C66.9629 69.1428 67.2218 69.0236 67.4452 68.8523C67.6685 68.681 67.8507 68.4618 67.9785 68.211C68.1062 67.9601 68.1763 67.6839 68.1834 67.4025C68.1906 67.121 68.1348 66.8416 68.02 66.5845C67.9053 66.3275 67.7345 66.0993 67.5201 65.9168C67.9577 65.4382 68.1937 64.8093 68.1792 64.161C68.1646 63.5128 67.9005 62.8951 67.442 62.4366C66.9834 61.9781 66.3657 61.7142 65.7174 61.6998C65.0691 61.6854 64.4402 61.9216 63.9617 62.3592C63.7068 62.0573 63.3634 61.8431 62.9801 61.7471C62.5967 61.651 62.1929 61.6779 61.8257 61.824C61.7389 61.5072 61.5711 61.2184 61.3388 60.9861C61.1065 60.7538 60.8178 60.586 60.5009 60.4992ZM19.7145 61.6912C19.7145 61.9392 19.6793 62.1864 19.6073 62.4232C20.0895 62.5437 20.5401 62.7666 20.9285 63.0767C21.3169 63.3868 21.6339 63.7769 21.8581 64.2205C22.0823 64.664 22.2084 65.1507 22.2278 65.6473C22.2472 66.1439 22.1594 66.6389 21.9705 67.0986C21.7815 67.5583 21.4959 67.9719 21.1328 68.3114C20.7698 68.6508 20.338 68.9081 19.8667 69.0658C19.3953 69.2235 18.8956 69.2779 18.4014 69.2253C17.9072 69.1727 17.4301 69.0142 17.0025 68.7608C16.6117 69.0753 16.125 69.2464 15.6233 69.2456C15.2417 69.2464 14.8665 69.1472 14.5353 68.9592C14.3935 69.2708 14.1539 69.5277 13.8528 69.6907C13.5518 69.8537 13.2057 69.9141 12.8673 69.8626C12.5288 69.8111 12.2164 69.6506 11.9774 69.4054C11.7385 69.1602 11.5861 68.8437 11.5433 68.504C11.2587 68.6066 10.9536 68.6393 10.6537 68.5993C10.3538 68.5594 10.0679 68.4479 9.82008 68.2743C9.57226 68.1008 9.36978 67.8702 9.22969 67.602C9.08961 67.3339 9.01603 67.036 9.01514 66.7334C9.01426 66.4309 9.0861 66.1325 9.22461 65.8635C9.36312 65.5946 9.56425 65.3628 9.81105 65.1878C10.0578 65.0128 10.3431 64.8997 10.6428 64.8579C10.9424 64.8162 11.2477 64.8471 11.5329 64.948C11.5155 64.5452 11.5951 64.144 11.765 63.7783C11.9348 63.4126 12.1901 63.0931 12.5091 62.8465C12.8282 62.5999 13.2018 62.4336 13.5985 62.3615C13.9953 62.2894 14.4035 62.3136 14.7889 62.432C14.6825 62.0857 14.652 61.7204 14.6996 61.3612C14.7471 61.002 14.8717 60.6573 15.0647 60.3506C15.2577 60.0439 15.5146 59.7825 15.8179 59.5842C16.1212 59.3859 16.4637 59.2553 16.822 59.2015C17.1803 59.1477 17.5461 59.1718 17.8942 59.2722C18.2424 59.3727 18.5648 59.5471 18.8394 59.7835C19.1139 60.0199 19.3343 60.3128 19.4853 60.6422C19.6364 60.9716 19.7146 61.3289 19.7145 61.6912Z" fill="url(#paint2_radial_157_4559)"/>
<path fill-rule="evenodd" clip-rule="evenodd" d="M41.7473 16.3673C41.7473 16.6777 41.6913 16.9753 41.5889 17.2489C41.7761 17.3401 41.9505 17.4537 42.1089 17.5865C42.3612 17.167 42.7303 16.8303 43.1711 16.6174C43.6118 16.4046 44.1051 16.3249 44.5905 16.3881C44.8669 15.8968 45.3001 15.5125 45.8208 15.2968C46.3415 15.081 46.9196 15.0462 47.4624 15.1979C48.0053 15.3497 48.4815 15.6792 48.8148 16.1337C49.1481 16.5883 49.3193 17.1415 49.3009 17.7049C49.6283 17.7897 49.9354 17.9395 50.2038 18.1454C50.4722 18.3512 50.6965 18.609 50.8633 18.9033C51.4897 18.9793 52.0641 19.2873 52.4737 19.7657C53.0915 19.502 53.7775 19.4429 54.4313 19.597C55.0852 19.751 55.6726 20.1102 56.1077 20.622C56.5428 21.1338 56.8027 21.7714 56.8496 22.4415C56.8964 23.1116 56.7277 23.7791 56.3681 24.3465C56.8153 24.6465 57.1545 25.0809 57.3377 25.5881C57.7186 25.0668 58.2851 24.7118 58.9203 24.5962C59.5555 24.4807 60.2107 24.6135 60.7508 24.9672C61.2909 25.3209 61.6745 25.8685 61.8224 26.4969C61.9703 27.1254 61.8713 27.7866 61.5457 28.3441C61.9728 28.3925 62.3804 28.5496 62.7296 28.8002C63.0788 29.0508 63.3581 29.3867 63.5407 29.7758C63.7234 30.1649 63.8033 30.5943 63.773 31.0231C63.7427 31.4519 63.6031 31.8658 63.3676 32.2253C63.132 32.5849 62.8083 32.8781 62.4273 33.0771C62.0463 33.2761 61.6207 33.3743 61.191 33.3622C60.7613 33.3501 60.3419 33.2282 59.9726 33.0081C59.6034 32.788 59.2967 32.4771 59.0817 32.1049H19.7137V31.1385C19.2392 31.4122 18.6885 31.5237 18.1449 31.4562C17.6013 31.3887 17.0946 31.1459 16.7015 30.7644C16.3084 30.383 16.0503 29.8838 15.9665 29.3425C15.8827 28.8012 15.9776 28.2473 16.2369 27.7649C15.75 27.3696 15.428 26.8069 15.3341 26.1869C15.2401 25.5668 15.3809 24.934 15.7289 24.4122C16.0768 23.8905 16.607 23.5174 17.2155 23.3658C17.8241 23.2143 18.4673 23.2952 19.0193 23.5929C19.255 23.3019 19.5527 23.0673 19.8907 22.9062C20.2287 22.7451 20.5984 22.6616 20.9729 22.6617C20.9727 22.3034 21.049 21.9493 21.1966 21.623C21.3442 21.2966 21.5598 21.0055 21.8289 20.7691C22.098 20.5327 22.4145 20.3564 22.7572 20.2521C23.0999 20.1477 23.4609 20.1177 23.8161 20.1641C24.065 19.7235 24.4408 19.3682 24.8946 19.1445C25.3484 18.9207 25.8591 18.8389 26.3601 18.9097C26.0526 18.3926 25.9405 17.7826 26.0439 17.19C26.1473 16.5975 26.4595 16.0615 26.9239 15.6792C27.3883 15.2969 27.9742 15.0935 28.5756 15.1058C29.177 15.1182 29.7541 15.3454 30.2025 15.7465C30.7588 15.6993 31.3151 15.8382 31.784 16.1414C32.2528 16.4446 32.6077 16.8949 32.7929 17.4217C33.1209 17.2009 33.4969 17.0617 33.8897 17.0137C34.1675 16.5227 34.6022 16.1392 35.124 15.9248C35.6458 15.7104 36.2245 15.6774 36.7673 15.8313C36.8994 15.2241 37.2513 14.6873 37.7553 14.3239C38.2593 13.9606 38.8798 13.7964 39.4976 13.8629C40.1154 13.9294 40.6867 14.2219 41.1019 14.6842C41.517 15.1465 41.7474 15.7459 41.7473 16.3673Z" fill="url(#paint3_radial_157_4559)"/>
<path opacity="0.6" d="M37.0264 29.5871C37.8117 29.5871 38.5894 29.4325 39.315 29.1319C40.0406 28.8314 40.6998 28.3909 41.2552 27.8355C41.8105 27.2802 42.251 26.6209 42.5516 25.8953C42.8521 25.1698 43.0068 24.3921 43.0068 23.6067C43.0068 22.8214 42.8521 22.0437 42.5516 21.3181C42.251 20.5926 41.8105 19.9333 41.2552 19.378C40.6998 18.8226 40.0406 18.3821 39.315 18.0816C38.5894 17.781 37.8117 17.6263 37.0264 17.6263C35.4404 17.6263 33.9194 18.2564 32.7979 19.3778C31.6764 20.4993 31.0464 22.0203 31.0464 23.6063C31.0464 25.1923 31.6764 26.7134 32.7979 27.8348C33.9194 28.9563 35.4404 29.5871 37.0264 29.5871Z" fill="url(#paint4_radial_157_4559)"/>
<path opacity="0.6" d="M35.1379 25.8096C36.2232 25.8096 37.264 25.3785 38.0314 24.6111C38.7988 23.8437 39.2299 22.8029 39.2299 21.7176C39.2299 20.6323 38.7988 19.5915 38.0314 18.8241C37.264 18.0567 36.2232 17.6256 35.1379 17.6256C34.0526 17.6256 33.0118 18.0567 32.2444 18.8241C31.477 19.5915 31.0459 20.6323 31.0459 21.7176C31.0459 22.8029 31.477 23.8437 32.2444 24.6111C33.0118 25.3785 34.0526 25.8096 35.1379 25.8096Z" fill="url(#paint5_radial_157_4559)"/>
<path opacity="0.6" d="M33.8786 28.9576C34.9639 28.9576 36.0047 28.5264 36.7721 27.759C37.5395 26.9916 37.9706 25.9508 37.9706 24.8656C37.9706 23.7803 37.5395 22.7395 36.7721 21.9721C36.0047 21.2047 34.9639 20.7736 33.8786 20.7736C32.7934 20.7736 31.7525 21.2047 30.9851 21.9721C30.2177 22.7395 29.7866 23.7803 29.7866 24.8656C29.7866 25.9508 30.2177 26.9916 30.9851 27.759C31.7525 28.5264 32.7934 28.9576 33.8786 28.9576Z" fill="url(#paint6_radial_157_4559)"/>
<path opacity="0.6" d="M21.9187 30.8456C23.0039 30.8456 24.0447 30.4145 24.8121 29.6471C25.5795 28.8797 26.0107 27.8389 26.0107 26.7536C26.0107 25.6684 25.5795 24.6275 24.8121 23.8601C24.0447 23.0927 23.0039 22.6616 21.9187 22.6616C20.8334 22.6616 19.7926 23.0927 19.0252 23.8601C18.2578 24.6275 17.8267 25.6684 17.8267 26.7536C17.8267 27.8389 18.2578 28.8797 19.0252 29.6471C19.7926 30.4145 20.8334 30.8456 21.9187 30.8456Z" fill="url(#paint7_radial_157_4559)"/>
<path opacity="0.6" d="M24.4362 28.9576C25.5215 28.9576 26.5623 28.5264 27.3297 27.759C28.0971 26.9916 28.5282 25.9508 28.5282 24.8656C28.5282 23.7803 28.0971 22.7395 27.3297 21.9721C26.5623 21.2047 25.5215 20.7736 24.4362 20.7736C23.351 20.7736 22.3102 21.2047 21.5428 21.9721C20.7754 22.7395 20.3442 23.7803 20.3442 24.8656C20.3442 25.9508 20.7754 26.9916 21.5428 27.759C22.3102 28.5264 23.351 28.9576 24.4362 28.9576Z" fill="url(#paint8_radial_157_4559)"/>
<path opacity="0.6" d="M24.4361 30.216C25.0204 30.216 25.5808 29.9838 25.994 29.5707C26.4072 29.1575 26.6393 28.5971 26.6393 28.0128C26.6393 27.4284 26.4072 26.8681 25.994 26.4549C25.5808 26.0417 25.0204 25.8096 24.4361 25.8096C23.8518 25.8096 23.2914 26.0417 22.8782 26.4549C22.465 26.8681 22.2329 27.4284 22.2329 28.0128C22.2329 28.5971 22.465 29.1575 22.8782 29.5707C23.2914 29.9838 23.8518 30.216 24.4361 30.216Z" fill="url(#paint9_radial_157_4559)"/>
<path opacity="0.2" d="M59.0592 28.9575C59.6435 28.9575 60.2039 28.7254 60.6171 28.3122C61.0302 27.8991 61.2624 27.3387 61.2624 26.7543C61.2624 26.17 61.0302 25.6096 60.6171 25.1965C60.2039 24.7833 59.6435 24.5511 59.0592 24.5511C58.4748 24.5511 57.9144 24.7833 57.5013 25.1965C57.0881 25.6096 56.856 26.17 56.856 26.7543C56.856 27.3387 57.0881 27.8991 57.5013 28.3122C57.9144 28.7254 58.4748 28.9575 59.0592 28.9575Z" fill="url(#paint10_radial_157_4559)"/>
<path opacity="0.2" d="M61.577 31.4752C61.9944 31.4752 62.3946 31.3094 62.6897 31.0143C62.9848 30.7192 63.1506 30.3189 63.1506 29.9016C63.1506 29.4843 62.9848 29.084 62.6897 28.7889C62.3946 28.4938 61.9944 28.328 61.577 28.328C61.1597 28.328 60.7594 28.4938 60.4643 28.7889C60.1692 29.084 60.0034 29.4843 60.0034 29.9016C60.0034 30.3189 60.1692 30.7192 60.4643 31.0143C60.7594 31.3094 61.1597 31.4752 61.577 31.4752Z" fill="url(#paint11_radial_157_4559)"/>
<path opacity="0.3" d="M58.43 32.1048C59.1813 32.1048 59.9018 31.8064 60.4331 31.2751C60.9643 30.7438 61.2628 30.0233 61.2628 29.272C61.2628 28.5207 60.9643 27.8002 60.4331 27.2689C59.9018 26.7377 59.1813 26.4392 58.43 26.4392C57.6787 26.4392 56.9581 26.7377 56.4269 27.2689C55.8956 27.8002 55.5972 28.5207 55.5972 29.272C55.5972 30.0233 55.8956 30.7438 56.4269 31.2751C56.9581 31.8064 57.6787 32.1048 58.43 32.1048Z" fill="url(#paint12_radial_157_4559)"/>
<path opacity="0.2" d="M47.0987 19.5144C47.388 19.5144 47.6745 19.4574 47.9418 19.3467C48.2091 19.236 48.452 19.0737 48.6566 18.8691C48.8612 18.6645 49.0235 18.4217 49.1342 18.1544C49.2449 17.8871 49.3019 17.6006 49.3019 17.3112C49.3019 17.0219 49.2449 16.7354 49.1342 16.4681C49.0235 16.2008 48.8612 15.9579 48.6566 15.7533C48.452 15.5487 48.2091 15.3865 47.9418 15.2757C47.6745 15.165 47.388 15.108 47.0987 15.108C46.5144 15.108 45.954 15.3402 45.5408 15.7533C45.1276 16.1665 44.8955 16.7269 44.8955 17.3112C44.8955 17.8956 45.1276 18.4559 45.5408 18.8691C45.954 19.2823 46.5144 19.5144 47.0987 19.5144Z" fill="url(#paint13_radial_157_4559)"/>
<path opacity="0.2" d="M38.9148 16.9968C39.3323 16.9968 39.7326 16.8309 40.0278 16.5357C40.323 16.2406 40.4888 15.8402 40.4888 15.4228C40.4888 15.0053 40.323 14.605 40.0278 14.3098C39.7326 14.0146 39.3323 13.8488 38.9148 13.8488C38.4974 13.8488 38.097 14.0146 37.8018 14.3098C37.5067 14.605 37.3408 15.0053 37.3408 15.4228C37.3408 15.8402 37.5067 16.2406 37.8018 16.5357C38.097 16.8309 38.4974 16.9968 38.9148 16.9968Z" fill="url(#paint14_radial_157_4559)"/>
<path opacity="0.2" d="M28.2132 18.8855C28.6306 18.8855 29.031 18.7197 29.3261 18.4245C29.6213 18.1294 29.7872 17.729 29.7872 17.3115C29.7872 16.8941 29.6213 16.4937 29.3261 16.1986C29.031 15.9034 28.6306 15.7375 28.2132 15.7375C27.7957 15.7375 27.3954 15.9034 27.1002 16.1986C26.805 16.4937 26.6392 16.8941 26.6392 17.3115C26.6392 17.729 26.805 18.1294 27.1002 18.4245C27.3954 18.7197 27.7957 18.8855 28.2132 18.8855Z" fill="url(#paint15_radial_157_4559)"/>
<path opacity="0.2" d="M49.6164 26.44C50.7017 26.44 51.7425 26.0089 52.5099 25.2415C53.2773 24.4741 53.7084 23.4332 53.7084 22.348C53.7084 21.2627 53.2773 20.2219 52.5099 19.4545C51.7425 18.6871 50.7017 18.256 49.6164 18.256C48.5311 18.256 47.4903 18.6871 46.7229 19.4545C45.9555 20.2219 45.5244 21.2627 45.5244 22.348C45.5244 23.4332 45.9555 24.4741 46.7229 25.2415C47.4903 26.0089 48.5311 26.44 49.6164 26.44Z" fill="url(#paint16_radial_157_4559)"/>
<path opacity="0.6" d="M45.84 25.1801C46.3822 25.1876 46.9204 25.0874 47.4235 24.8852C47.9265 24.683 48.3844 24.3828 48.7704 24.0021C49.1565 23.6214 49.463 23.1678 49.6723 22.6676C49.8815 22.1674 49.9893 21.6306 49.9893 21.0885C49.9893 20.5463 49.8815 20.0095 49.6723 19.5093C49.463 19.0091 49.1565 18.5555 48.7704 18.1748C48.3844 17.7941 47.9265 17.494 47.4235 17.2917C46.9204 17.0895 46.3822 16.9893 45.84 16.9969C44.7548 16.9969 43.714 17.428 42.9466 18.1954C42.1792 18.9628 41.748 20.0036 41.748 21.0889C41.748 22.1741 42.1792 23.2149 42.9466 23.9823C43.714 24.7497 44.7548 25.1801 45.84 25.1801Z" fill="url(#paint17_radial_157_4559)"/>
<path opacity="0.2" d="M47.7282 27.0688C48.8135 27.0688 49.8543 26.6376 50.6217 25.8702C51.3891 25.1028 51.8202 24.062 51.8202 22.9768C51.8202 21.8915 51.3891 20.8507 50.6217 20.0833C49.8543 19.3159 48.8135 18.8848 47.7282 18.8848C46.643 18.8848 45.6021 19.3159 44.8348 20.0833C44.0674 20.8507 43.6362 21.8915 43.6362 22.9768C43.6362 24.062 44.0674 25.1028 44.8348 25.8702C45.6021 26.6376 46.643 27.0688 47.7282 27.0688Z" fill="url(#paint18_radial_157_4559)"/>
<path d="M15.3081 29.5872H51.1905L48.0425 71.1344H17.8265L15.3081 29.5872Z" fill="url(#paint19_linear_157_4559)"/>
<path d="M57.4857 68.616L48.0425 71.1344L51.1905 29.5872L63.1505 32.7344L57.4857 68.616Z" fill="url(#paint20_linear_157_4559)"/>
<path fill-rule="evenodd" clip-rule="evenodd" d="M37.2644 37.8664L37.4676 29.5864H29.9572L30.0404 37.4584C28.7293 37.7514 27.4709 38.2438 26.3092 38.9184L26.0476 29.5872H18.522L20.8636 71.1344H27.218L26.9644 62.1584C28.0233 62.6954 29.1501 63.0864 30.314 63.3208L30.398 71.1344H36.4444L36.6444 63.0536C37.6721 62.7535 38.6594 62.329 39.5844 61.7896L39.2884 71.1344H45.9452L48.138 29.5872H40.6044L40.294 39.3768C39.353 38.7451 38.3345 38.2375 37.2636 37.8664H37.2644ZM50.1268 70.5784L52.4868 69.9496L57.1628 31.1592L53.562 30.2104L50.1268 70.5784ZM53.8308 69.5912L55.6844 69.0968L61.9548 32.42L58.4548 31.4984L53.8308 69.5912ZM43.006 50.36C43.006 55.9224 38.4972 60.432 32.934 60.432C27.3708 60.432 22.862 55.9232 22.862 50.36C22.862 44.7968 27.3708 40.288 32.934 40.288C38.4972 40.288 43.006 44.7968 43.006 50.36ZM37.2684 55.796L35.9124 51.408L39.1988 48.9704C39.2497 48.9327 39.288 48.8802 39.3084 48.8202C39.3288 48.7601 39.3304 48.6953 39.3131 48.6343C39.2957 48.5733 39.2601 48.519 39.2111 48.4787C39.1621 48.4384 39.102 48.4141 39.0388 48.4088C37.6587 48.2974 36.2757 48.2243 34.8916 48.1896L33.2308 43.62C33.2086 43.5594 33.1683 43.507 33.1153 43.47C33.0624 43.433 32.9994 43.4132 32.9348 43.4132C32.8702 43.4132 32.8072 43.433 32.7542 43.47C32.7013 43.507 32.661 43.5594 32.6388 43.62L30.978 48.1896C29.57 48.2248 28.186 48.2992 26.83 48.4088C26.7669 48.4143 26.707 48.4389 26.6582 48.4793C26.6094 48.5197 26.5741 48.574 26.5569 48.6349C26.5397 48.6959 26.5415 48.7606 26.562 48.8206C26.5824 48.8805 26.6207 48.9328 26.6716 48.9704L29.9572 51.4072L28.6004 55.7952C28.5811 55.8576 28.5817 55.9245 28.6021 55.9866C28.6225 56.0486 28.6617 56.1028 28.7142 56.1416C28.7667 56.1805 28.83 56.202 28.8953 56.2033C28.9607 56.2046 29.0248 56.1856 29.0788 56.1488L32.9348 53.524L36.7908 56.1488C36.8447 56.1857 36.9088 56.2049 36.9742 56.2038C37.0395 56.2027 37.1029 56.1812 37.1556 56.1425C37.2082 56.1037 37.2475 56.0496 37.268 55.9875C37.2885 55.9254 37.2892 55.8585 37.27 55.796H37.2684Z" fill="url(#paint21_linear_157_4559)"/>
<path opacity="0.4" d="M13.7347 66.0984C14.1521 66.0984 14.5523 65.9326 14.8474 65.6375C15.1425 65.3424 15.3083 64.9421 15.3083 64.5248C15.3083 64.1074 15.1425 63.7072 14.8474 63.4121C14.5523 63.117 14.1521 62.9512 13.7347 62.9512C13.3174 62.9512 12.9171 63.117 12.622 63.4121C12.3269 63.7072 12.1611 64.1074 12.1611 64.5248C12.1611 64.9421 12.3269 65.3424 12.622 65.6375C12.9171 65.9326 13.3174 66.0984 13.7347 66.0984Z" fill="url(#paint22_radial_157_4559)"/>
<path opacity="0.4" d="M11.2161 67.9871C11.6335 67.9871 12.0339 67.8213 12.3291 67.5261C12.6243 67.2309 12.7901 66.8306 12.7901 66.4131C12.7901 65.9957 12.6243 65.5953 12.3291 65.3001C12.0339 65.0049 11.6335 64.8391 11.2161 64.8391C10.7986 64.8391 10.3983 65.0049 10.1031 65.3001C9.80792 65.5953 9.64209 65.9957 9.64209 66.4131C9.64209 66.8306 9.80792 67.2309 10.1031 67.5261C10.3983 67.8213 10.7986 67.9871 11.2161 67.9871Z" fill="url(#paint23_radial_157_4559)"/>
<path opacity="0.4" d="M13.1048 67.9871C13.5222 67.9871 13.9226 67.8213 14.2177 67.5261C14.5129 67.2309 14.6788 66.8306 14.6788 66.4131C14.6788 65.9957 14.5129 65.5953 14.2177 65.3001C13.9226 65.0049 13.5222 64.8391 13.1048 64.8391C12.6873 64.8391 12.287 65.0049 11.9918 65.3001C11.6966 65.5953 11.5308 65.9957 11.5308 66.4131C11.5308 66.8306 11.6966 67.2309 11.9918 67.5261C12.287 67.8213 12.6873 67.9871 13.1048 67.9871Z" fill="url(#paint24_radial_157_4559)"/>
<path opacity="0.4" d="M15.6234 69.2456C15.8301 69.2456 16.0347 69.2049 16.2256 69.1258C16.4165 69.0467 16.59 68.9308 16.7361 68.7847C16.8822 68.6386 16.9981 68.4651 17.0772 68.2742C17.1563 68.0833 17.197 67.8786 17.197 67.672C17.197 67.4653 17.1563 67.2607 17.0772 67.0698C16.9981 66.8789 16.8822 66.7054 16.7361 66.5593C16.59 66.4132 16.4165 66.2973 16.2256 66.2182C16.0347 66.1391 15.8301 66.0984 15.6234 66.0984C15.2061 66.0984 14.8058 66.2642 14.5107 66.5593C14.2156 66.8544 14.0498 67.2546 14.0498 67.672C14.0498 68.0893 14.2156 68.4896 14.5107 68.7847C14.8058 69.0798 15.2061 69.2456 15.6234 69.2456Z" fill="url(#paint25_radial_157_4559)"/>
<path opacity="0.4" d="M65.9842 68.6159C66.4016 68.6159 66.8018 68.4502 67.0969 68.1551C67.3921 67.8599 67.5578 67.4597 67.5578 67.0424C67.5578 66.625 67.3921 66.2248 67.0969 65.9297C66.8018 65.6345 66.4016 65.4688 65.9842 65.4688C65.5669 65.4688 65.1666 65.6345 64.8715 65.9297C64.5764 66.2248 64.4106 66.625 64.4106 67.0424C64.4106 67.4597 64.5764 67.8599 64.8715 68.1551C65.1666 68.4502 65.5669 68.6159 65.9842 68.6159Z" fill="url(#paint26_radial_157_4559)"/>
<path opacity="0.4" d="M65.6692 66.0983C66.17 66.0983 66.6503 65.8994 67.0045 65.5452C67.3586 65.1911 67.5576 64.7108 67.5576 64.2099C67.5576 63.7091 67.3586 63.2288 67.0045 62.8746C66.6503 62.5205 66.17 62.3215 65.6692 62.3215C65.1683 62.3215 64.688 62.5205 64.3339 62.8746C63.9797 63.2288 63.7808 63.7091 63.7808 64.2099C63.7808 64.7108 63.9797 65.1911 64.3339 65.5452C64.688 65.8994 65.1683 66.0983 65.6692 66.0983Z" fill="url(#paint27_radial_157_4559)"/>
<path opacity="0.4" d="M62.5217 66.0983C63.0225 66.0983 63.5029 65.8994 63.857 65.5452C64.2112 65.1911 64.4101 64.7108 64.4101 64.2099C64.4101 63.7091 64.2112 63.2288 63.857 62.8746C63.5029 62.5205 63.0225 62.3215 62.5217 62.3215C62.0209 62.3215 61.5405 62.5205 61.1864 62.8746C60.8323 63.2288 60.6333 63.7091 60.6333 64.2099C60.6333 64.7108 60.8323 65.1911 61.1864 65.5452C61.5405 65.8994 62.0209 66.0983 62.5217 66.0983Z" fill="url(#paint28_radial_157_4559)"/>
<path opacity="0.4" d="M60.318 65.4689C60.9023 65.4689 61.4627 65.2368 61.8758 64.8236C62.289 64.4104 62.5211 63.85 62.5211 63.2657C62.5211 62.6814 62.289 62.121 61.8758 61.7078C61.4627 61.2946 60.9023 61.0625 60.318 61.0625C59.7336 61.0625 59.1732 61.2946 58.7601 61.7078C58.3469 62.121 58.1147 62.6814 58.1147 63.2657C58.1147 63.85 58.3469 64.4104 58.7601 64.8236C59.1732 65.2368 59.7336 65.4689 60.318 65.4689Z" fill="url(#paint29_radial_157_4559)"/>
<path opacity="0.4" d="M14.9936 67.9873C15.5781 67.9873 16.1386 67.7551 16.5518 67.3419C16.9651 66.9286 17.1972 66.3681 17.1972 65.7837C17.1972 65.1992 16.9651 64.6388 16.5518 64.2255C16.1386 63.8122 15.5781 63.5801 14.9936 63.5801C14.4092 63.5801 13.8487 63.8122 13.4355 64.2255C13.0222 64.6388 12.79 65.1992 12.79 65.7837C12.79 66.3681 13.0222 66.9286 13.4355 67.3419C13.8487 67.7551 14.4092 67.9873 14.9936 67.9873Z" fill="url(#paint30_radial_157_4559)"/>
<path fill-rule="evenodd" clip-rule="evenodd" d="M59.3736 63.5801C59.8744 63.5803 60.3546 63.7794 60.7086 64.1336C61.0627 64.4878 61.2616 64.9681 61.2616 65.4689C61.6225 65.4687 61.9792 65.546 62.3075 65.6957C62.6359 65.8454 62.9283 66.0639 63.1648 66.3365C63.4014 66.609 63.5766 66.9292 63.6786 67.2754C63.7806 67.6216 63.8071 67.9856 63.7561 68.3429C63.7052 68.7001 63.578 69.0423 63.3833 69.3461C63.1886 69.65 62.9308 69.9084 62.6275 70.104C62.3242 70.2995 61.9824 70.4276 61.6253 70.4795C61.2681 70.5314 60.904 70.506 60.5576 70.4049C60.4268 70.8602 60.1297 71.2497 59.7252 71.4962C59.3206 71.7426 58.8382 71.828 58.3736 71.7354C57.9091 71.6427 57.4963 71.3788 57.2173 70.996C56.9382 70.6132 56.8132 70.1395 56.8672 69.6689C56.4376 69.4679 56.0843 69.1337 55.8598 68.7159C55.6352 68.2981 55.5515 67.819 55.6209 67.3498C55.6904 66.8806 55.9093 66.4464 56.2453 66.1116C56.5812 65.7767 57.0162 65.5592 57.4856 65.4913V65.4689C57.4856 64.9681 57.6845 64.4879 58.0386 64.1339C58.3926 63.7798 58.8728 63.5801 59.3736 63.5801Z" fill="url(#paint31_radial_157_4559)"/>
<defs>
<radialGradient id="paint0_radial_157_4559" cx="0" cy="0" r="1" gradientUnits="userSpaceOnUse" gradientTransform="translate(38.6002 69.2831) rotate(-90) scale(6.96161 38.6054)">
<stop offset="0.286" stop-color="#7D2889"/>
<stop offset="0.724" stop-color="#FF66D9" stop-opacity="0.41"/>
<stop offset="1" stop-color="white" stop-opacity="0"/>
</radialGradient>
<radialGradient id="paint1_radial_157_4559" cx="0" cy="0" r="1" gradientUnits="userSpaceOnUse" gradientTransform="translate(38.6002 31.324) rotate(-90) scale(30.6945 38.6054)">
<stop stop-color="#FFCA45"/>
<stop offset="0.453" stop-color="#FF66D9" stop-opacity="0.36"/>
<stop offset="1" stop-color="white" stop-opacity="0"/>
</radialGradient>
<radialGradient id="paint2_radial_157_4559" cx="0" cy="0" r="1" gradientUnits="userSpaceOnUse" gradientTransform="translate(37.6561 63.5808) rotate(180) scale(30.2164 30.2164)">
<stop offset="0.432" stop-color="#FF8B54"/>
<stop offset="0.76" stop-color="#FFBB8D"/>
<stop offset="1" stop-color="#F9DDD1"/>
</radialGradient>
<radialGradient id="paint3_radial_157_4559" cx="0" cy="0" r="1" gradientUnits="userSpaceOnUse" gradientTransform="translate(38.2857 22.3473) rotate(-90) scale(8.4984 22.6056)">
<stop offset="0.302" stop-color="#F9DDD1"/>
<stop offset="0.674" stop-color="#FFBB8D"/>
<stop offset="1" stop-color="#FF8B54"/>
</radialGradient>
<radialGradient id="paint4_radial_157_4559" cx="0" cy="0" r="1" gradientUnits="userSpaceOnUse" gradientTransform="translate(37.0256 23.9583) rotate(90) scale(5.62854)">
<stop offset="0.375" stop-color="#FFF4EB"/>
<stop offset="1" stop-color="#FFF3EB" stop-opacity="0"/>
</radialGradient>
<radialGradient id="paint5_radial_157_4559" cx="0" cy="0" r="1" gradientUnits="userSpaceOnUse" gradientTransform="translate(35.1379 21.9584) rotate(90) scale(3.85111)">
<stop offset="0.375" stop-color="#FFF4EB"/>
<stop offset="1" stop-color="#FFF3EB" stop-opacity="0"/>
</radialGradient>
<radialGradient id="paint6_radial_157_4559" cx="0" cy="0" r="1" gradientUnits="userSpaceOnUse" gradientTransform="translate(33.8786 25.1056) rotate(90) scale(3.85111)">
<stop offset="0.375" stop-color="#FFF4EB"/>
<stop offset="1" stop-color="#FFF3EB" stop-opacity="0"/>
</radialGradient>
<radialGradient id="paint7_radial_157_4559" cx="0" cy="0" r="1" gradientUnits="userSpaceOnUse" gradientTransform="translate(21.9179 26.9944) rotate(90) scale(3.85111)">
<stop offset="0.375" stop-color="#FFF4EB"/>
<stop offset="1" stop-color="#FFF3EB" stop-opacity="0"/>
</radialGradient>
<radialGradient id="paint8_radial_157_4559" cx="0" cy="0" r="1" gradientUnits="userSpaceOnUse" gradientTransform="translate(24.4362 25.1064) rotate(90) scale(3.85111)">
<stop offset="0.375" stop-color="#FFF4EB"/>
<stop offset="1" stop-color="#FFF3EB" stop-opacity="0"/>
</radialGradient>
<radialGradient id="paint9_radial_157_4559" cx="0" cy="0" r="1" gradientUnits="userSpaceOnUse" gradientTransform="translate(24.4361 28.1432) rotate(90) scale(2.07367)">
<stop offset="0.375" stop-color="#FFF4EB"/>
<stop offset="1" stop-color="#FFF3EB" stop-opacity="0"/>
</radialGradient>
<radialGradient id="paint10_radial_157_4559" cx="0" cy="0" r="1" gradientUnits="userSpaceOnUse" gradientTransform="translate(59.06 26.8839) rotate(90) scale(2.07367 2.07367)">
<stop offset="0.375" stop-color="#FFF4EB"/>
<stop offset="1" stop-color="#FFF3EB" stop-opacity="0"/>
</radialGradient>
<radialGradient id="paint11_radial_157_4559" cx="0" cy="0" r="1" gradientUnits="userSpaceOnUse" gradientTransform="translate(61.577 29.9944) rotate(90) scale(1.48119 1.48119)">
<stop offset="0.375" stop-color="#FFF4EB"/>
<stop offset="1" stop-color="#FFF3EB" stop-opacity="0"/>
</radialGradient>
<radialGradient id="paint12_radial_157_4559" cx="0" cy="0" r="1" gradientUnits="userSpaceOnUse" gradientTransform="translate(58.4292 29.4384) rotate(90) scale(2.66615)">
<stop offset="0.375" stop-color="#FFF4EB"/>
<stop offset="1" stop-color="#FFF3EB" stop-opacity="0"/>
</radialGradient>
<radialGradient id="paint13_radial_157_4559" cx="0" cy="0" r="1" gradientUnits="userSpaceOnUse" gradientTransform="translate(47.0979 17.4416) rotate(90) scale(2.07367)">
<stop offset="0.375" stop-color="#FFF4EB"/>
<stop offset="1" stop-color="#FFF3EB" stop-opacity="0"/>
</radialGradient>
<radialGradient id="paint14_radial_157_4559" cx="0" cy="0" r="1" gradientUnits="userSpaceOnUse" gradientTransform="translate(38.9156 15.5152) rotate(90) scale(1.4812)">
<stop offset="0.375" stop-color="#FFF4EB"/>
<stop offset="1" stop-color="#FFF3EB" stop-opacity="0"/>
</radialGradient>
<radialGradient id="paint15_radial_157_4559" cx="0" cy="0" r="1" gradientUnits="userSpaceOnUse" gradientTransform="translate(28.2132 17.4047) rotate(90) scale(1.48119)">
<stop offset="0.375" stop-color="#FFF4EB"/>
<stop offset="1" stop-color="#FFF3EB" stop-opacity="0"/>
</radialGradient>
<radialGradient id="paint16_radial_157_4559" cx="0" cy="0" r="1" gradientUnits="userSpaceOnUse" gradientTransform="translate(49.6172 22.588) rotate(90) scale(3.85111 3.85111)">
<stop offset="0.375" stop-color="#FFF4EB"/>
<stop offset="1" stop-color="#FFF3EB" stop-opacity="0"/>
</radialGradient>
<radialGradient id="paint17_radial_157_4559" cx="0" cy="0" r="1" gradientUnits="userSpaceOnUse" gradientTransform="translate(45.8392 21.3289) rotate(90) scale(3.85111)">
<stop offset="0.375" stop-color="#FFF4EB"/>
<stop offset="1" stop-color="#FFF3EB" stop-opacity="0"/>
</radialGradient>
<radialGradient id="paint18_radial_157_4559" cx="0" cy="0" r="1" gradientUnits="userSpaceOnUse" gradientTransform="translate(47.7282 23.2176) rotate(90) scale(3.85111 3.85111)">
<stop offset="0.375" stop-color="#FFF4EB"/>
<stop offset="1" stop-color="#FFF3EB" stop-opacity="0"/>
</radialGradient>
<linearGradient id="paint19_linear_157_4559" x1="48.0425" y1="71.1344" x2="27.2113" y2="16.8368" gradientUnits="userSpaceOnUse">
<stop stop-color="#E0B1CC"/>
<stop offset="0.431" stop-color="#FFF1F1"/>
<stop offset="1" stop-color="#FFC9A5"/>
</linearGradient>
<linearGradient id="paint20_linear_157_4559" x1="48.0425" y1="42.492" x2="66.9281" y2="42.492" gradientUnits="userSpaceOnUse">
<stop stop-color="#D16AE9"/>
<stop offset="1" stop-color="#FF661D"/>
</linearGradient>
<linearGradient id="paint21_linear_157_4559" x1="14.6892" y1="29.5872" x2="60.3092" y2="68.4968" gradientUnits="userSpaceOnUse">
<stop stop-color="#FF661D"/>
<stop offset="0.5" stop-color="#CE3A00"/>
<stop offset="1" stop-color="#A60A5E"/>
</linearGradient>
<radialGradient id="paint22_radial_157_4559" cx="0" cy="0" r="1" gradientUnits="userSpaceOnUse" gradientTransform="translate(13.7347 64.6176) rotate(90) scale(1.4812)">
<stop offset="0.375" stop-color="#F9DDD1"/>
<stop offset="1" stop-color="#FFF3EB" stop-opacity="0"/>
</radialGradient>
<radialGradient id="paint23_radial_157_4559" cx="0" cy="0" r="1" gradientUnits="userSpaceOnUse" gradientTransform="translate(11.2169 66.5063) rotate(90) scale(1.4812 1.4812)">
<stop offset="0.375" stop-color="#F9DDD1"/>
<stop offset="1" stop-color="#FFF3EB" stop-opacity="0"/>
</radialGradient>
<radialGradient id="paint24_radial_157_4559" cx="0" cy="0" r="1" gradientUnits="userSpaceOnUse" gradientTransform="translate(13.1056 66.5055) rotate(90) scale(1.4812)">
<stop offset="0.375" stop-color="#F9DDD1"/>
<stop offset="1" stop-color="#FFF3EB" stop-opacity="0"/>
</radialGradient>
<radialGradient id="paint25_radial_157_4559" cx="0" cy="0" r="1" gradientUnits="userSpaceOnUse" gradientTransform="translate(15.6234 67.7656) rotate(90) scale(1.48119)">
<stop offset="0.375" stop-color="#F9DDD1"/>
<stop offset="1" stop-color="#FFF3EB" stop-opacity="0"/>
</radialGradient>
<radialGradient id="paint26_radial_157_4559" cx="0" cy="0" r="1" gradientUnits="userSpaceOnUse" gradientTransform="translate(65.9842 67.1359) rotate(90) scale(1.48119)">
<stop offset="0.375" stop-color="#F9DDD1"/>
<stop offset="1" stop-color="#FFF3EB" stop-opacity="0"/>
</radialGradient>
<radialGradient id="paint27_radial_157_4559" cx="0" cy="0" r="1" gradientUnits="userSpaceOnUse" gradientTransform="translate(65.6692 64.3199) rotate(90) scale(1.77744)">
<stop offset="0.375" stop-color="#F9DDD1"/>
<stop offset="1" stop-color="#FFF3EB" stop-opacity="0"/>
</radialGradient>
<radialGradient id="paint28_radial_157_4559" cx="0" cy="0" r="1" gradientUnits="userSpaceOnUse" gradientTransform="translate(62.5209 64.3207) rotate(90) scale(1.77744)">
<stop offset="0.375" stop-color="#F9DDD1"/>
<stop offset="1" stop-color="#FFF3EB" stop-opacity="0"/>
</radialGradient>
<radialGradient id="paint29_radial_157_4559" cx="0" cy="0" r="1" gradientUnits="userSpaceOnUse" gradientTransform="translate(60.3187 63.3953) rotate(90) scale(2.07368 2.07368)">
<stop offset="0.375" stop-color="#F9DDD1"/>
<stop offset="1" stop-color="#FFF3EB" stop-opacity="0"/>
</radialGradient>
<radialGradient id="paint30_radial_157_4559" cx="0" cy="0" r="1" gradientUnits="userSpaceOnUse" gradientTransform="translate(14.9936 65.9137) rotate(90) scale(2.07368 2.07368)">
<stop offset="0.375" stop-color="#F9DDD1"/>
<stop offset="1" stop-color="#FFF3EB" stop-opacity="0"/>
</radialGradient>
<radialGradient id="paint31_radial_157_4559" cx="0" cy="0" r="1" gradientUnits="userSpaceOnUse" gradientTransform="translate(61.2624 67.6724) rotate(111.038) scale(4.38402)">
<stop stop-color="#FDF7F2"/>
<stop offset="1" stop-color="#FFD8BD"/>
</radialGradient>
</defs>
</svg>
