<svg width="89" height="24" viewBox="0 0 89 24" fill="none" xmlns="http://www.w3.org/2000/svg">
<path d="M84.15 11.4245L88.8994 24C87.4995 23.7998 86.1003 23.5493 84.6749 23.3244L81.9994 16.3749L79.2498 22.75C77.9001 22.5251 76.5744 22.4493 75.2247 22.2746L80.0499 11.2745L75.6746 0H79.7252L82.1749 6.29937L84.8001 0H88.8994L84.15 11.4245ZM72.475 0H68.8001V21.8C69.9998 21.875 71.2498 21.9245 72.475 22.0744V0ZM65.6245 21.5495C62.275 21.3246 58.9247 21.1251 55.5002 21.0494V0H59.2494V17.4997C61.3999 17.5499 63.5497 17.7246 65.6245 17.8244V21.5495ZM51.4999 8.52489V12.2748H46.3755V20.7997H42.675V0H53.175V3.74993H46.3755V8.52489H51.4999ZM36.3749 3.74993V20.9999C35.1249 20.9999 33.8502 20.9999 32.625 21.0494V3.74993H28.7498V0H40.2748V3.74993H36.3749ZM24.7 12.4743C23.0503 12.4743 21.1 12.4743 19.7001 12.55V18.125C21.9001 17.9743 24.1001 17.7996 26.3249 17.7246V21.3246L15.9501 22.1502V0H26.3249V3.74993H19.7001V8.79932C21.1502 8.79932 23.375 8.72434 24.7 8.72434V12.4743ZM3.92501 10.3747V23.4744C2.57531 23.6251 1.37482 23.7998 0.100098 24V0H3.67532L8.55 13.6253V0H12.2999V22.4493C10.975 22.675 9.62526 22.75 8.19983 22.9495L3.92501 10.3747Z" fill="#E50914"/>
</svg>
